<svg width="675" height="656" viewBox="0 0 675 656" fill="none" xmlns="http://www.w3.org/2000/svg">
<rect x="137.818" y="125.245" width="455.266" height="537.361" transform="rotate(-9.43312 137.818 125.245)" fill="#0169EE"/>
<rect x="27.5605" y="160.604" width="418.804" height="494.253" transform="rotate(-21.4386 27.5605 160.604)" fill="white"/>
<path fill-rule="evenodd" clip-rule="evenodd" d="M415.52 2.77375L25.6934 155.848C23.0668 156.88 21.7736 159.845 22.805 162.472L203.456 622.527C204.488 625.154 207.453 626.447 210.08 625.416L599.907 472.341C602.533 471.31 603.826 468.345 602.795 465.718L422.144 5.66214C421.112 3.03552 418.147 1.74234 415.52 2.77375ZM414.498 14.1535L591.414 464.697L211.1 614.037L34.1837 163.493L414.498 14.1535Z" fill="#2E186A"/>
<path fill-rule="evenodd" clip-rule="evenodd" d="M77.7856 215.411C81.7609 213.85 86.2483 215.808 87.8083 219.784C89.3225 223.642 87.5225 227.983 83.7806 229.661L83.4351 229.806L11.3912 258.079C7.41588 259.639 2.92858 257.681 1.36852 253.706C-0.145646 249.847 1.6543 245.507 5.39626 243.828L5.74175 243.683L77.7856 215.411Z" fill="#2E186A"/>
<path fill-rule="evenodd" clip-rule="evenodd" d="M107.746 291.718C111.718 290.15 116.209 292.099 117.777 296.071C119.299 299.926 117.508 304.271 113.77 305.957L113.424 306.102L41.3805 334.545C37.4084 336.114 32.9171 334.165 31.3489 330.193C29.8269 326.337 31.6179 321.993 35.3564 320.307L35.7016 320.161L107.746 291.718Z" fill="#2E186A"/>
<path fill-rule="evenodd" clip-rule="evenodd" d="M137.738 368.185C141.713 366.625 146.2 368.583 147.76 372.558C149.275 376.416 147.475 380.757 143.733 382.436L143.387 382.581L71.3433 410.853C67.368 412.413 62.8807 410.455 61.3207 406.48C59.8065 402.622 61.6064 398.281 65.3484 396.603L65.6939 396.457L137.738 368.185Z" fill="#2E186A"/>
<path fill-rule="evenodd" clip-rule="evenodd" d="M167.712 444.486C171.688 442.926 176.175 444.884 177.735 448.859C179.249 452.718 177.449 457.059 173.707 458.737L173.362 458.882L101.318 487.155C97.3426 488.715 92.8553 486.757 91.2953 482.781C89.7811 478.923 91.5811 474.582 95.323 472.904L95.6685 472.759L167.712 444.486Z" fill="#2E186A"/>
<path fill-rule="evenodd" clip-rule="evenodd" d="M197.85 520.792C201.824 519.227 206.313 521.179 207.878 525.152C209.397 529.009 207.603 533.352 203.863 535.035L203.518 535.181L131.303 563.623C127.33 565.188 122.84 563.236 121.275 559.263C119.756 555.406 121.551 551.063 125.291 549.38L125.636 549.235L197.85 520.792Z" fill="#2E186A"/>
<path fill-rule="evenodd" clip-rule="evenodd" d="M296.578 196.903C299.205 195.872 302.17 197.166 303.201 199.792C304.196 202.325 303.029 205.173 300.589 206.298L300.312 206.416L162.356 260.576C159.729 261.607 156.764 260.314 155.733 257.687C154.738 255.154 155.905 252.307 158.345 251.182L158.622 251.064L296.578 196.903Z" fill="#2E186A"/>
<path fill-rule="evenodd" clip-rule="evenodd" d="M361.471 199.457C364.098 198.427 367.063 199.722 368.093 202.349C369.086 204.882 367.918 207.73 365.478 208.853L365.201 208.971L227.075 263.132C224.448 264.162 221.483 262.867 220.453 260.24C219.459 257.707 220.628 254.859 223.068 253.736L223.344 253.618L361.471 199.457Z" fill="#2E186A"/>
<path fill-rule="evenodd" clip-rule="evenodd" d="M196.767 264.01C199.393 262.976 202.359 264.266 203.394 266.891C204.391 269.423 203.227 272.272 200.789 273.4L200.513 273.518L172.41 284.589C169.785 285.623 166.818 284.333 165.784 281.707C164.786 279.176 165.95 276.326 168.389 275.199L168.665 275.081L196.767 264.01Z" fill="#2E186A"/>
<path fill-rule="evenodd" clip-rule="evenodd" d="M250.412 342.698C253.036 341.662 256.005 342.949 257.041 345.573C258.041 348.104 256.88 350.954 254.442 352.084L254.166 352.203L206.307 371.108C203.683 372.145 200.715 370.857 199.678 368.233C198.678 365.702 199.839 362.852 202.277 361.722L202.553 361.604L250.412 342.698Z" fill="#2E186A"/>
<path fill-rule="evenodd" clip-rule="evenodd" d="M276.99 300.457C279.616 299.424 282.582 300.716 283.614 303.342C284.61 305.875 283.445 308.723 281.005 309.849L280.729 309.967L195.401 343.519C192.774 344.552 189.808 343.26 188.776 340.634C187.78 338.102 188.946 335.253 191.385 334.127L191.661 334.009L276.99 300.457Z" fill="#2E186A"/>
<path fill-rule="evenodd" clip-rule="evenodd" d="M227.433 284.274C230.061 283.245 233.025 284.542 234.054 287.169C235.046 289.703 233.876 292.55 231.435 293.672L231.159 293.79L183.3 312.525C180.672 313.553 177.708 312.257 176.679 309.629C175.687 307.095 176.857 304.249 179.298 303.126L179.575 303.009L227.433 284.274Z" fill="#2E186A"/>
<path fill-rule="evenodd" clip-rule="evenodd" d="M328.254 244.593C330.88 243.56 333.846 244.852 334.879 247.479C335.875 250.011 334.709 252.859 332.269 253.985L331.993 254.103L252.285 285.442C249.659 286.474 246.693 285.182 245.66 282.556C244.665 280.023 245.83 277.175 248.27 276.049L248.546 275.931L328.254 244.593Z" fill="#2E186A"/>
<path fill-rule="evenodd" clip-rule="evenodd" d="M432.656 159.762L423.8 192.463L424.651 500.906H442.535L441.683 192.292L432.656 159.762Z" fill="#2E186A"/>
<path fill-rule="evenodd" clip-rule="evenodd" d="M455.374 410.253C458.118 410.197 460.406 412.296 460.618 414.998L460.633 415.301L462.166 490.07C462.223 492.858 460.058 495.166 457.309 495.322L457.012 495.331H424.652C421.805 495.331 419.497 493.023 419.497 490.176C419.497 487.43 421.643 485.186 424.349 485.029L424.652 485.021L451.749 485.02L450.325 415.512C450.269 412.768 452.369 410.48 455.071 410.268L455.374 410.253Z" fill="#0169EE"/>
<path fill-rule="evenodd" clip-rule="evenodd" d="M428.058 298.74H437.937C442.195 298.74 445.601 295.334 445.601 291.246L446.112 216.477C446.112 212.219 442.706 208.813 438.618 208.813H428.74C424.482 208.813 421.075 212.219 421.075 216.307L420.564 291.076C420.564 295.334 423.971 298.74 428.058 298.74Z" fill="#0169EE"/>
<path fill-rule="evenodd" clip-rule="evenodd" d="M434.152 379.256C436.896 379.326 439.085 381.529 439.172 384.238L439.173 384.541L438.151 424.395C438.078 427.241 435.712 429.489 432.866 429.416C430.121 429.346 427.933 427.143 427.846 424.434L427.845 424.131L428.867 384.277C428.94 381.431 431.306 379.183 434.152 379.256Z" fill="#0169EE"/>
<path fill-rule="evenodd" clip-rule="evenodd" d="M344.431 88.9099L340.003 122.292L381.901 428.01L399.614 425.626L357.716 119.908L344.431 88.9099Z" fill="#2E186A"/>
</svg>
